HIERARCHY
ROOT __0
{
	OFFSET 0.0 0.0 0.0
	CHANNELS 0
	JOINT spine
	{
		OFFSET 0.000162 -0.056932 1.012679
		CHANNELS 6 Xposition Yposition Zposition Xrotation Yrotation Zrotation
		JOINT spine.001
		{
			OFFSET 0.000320 0.008121 0.058438
			CHANNELS 6 Xposition Yposition Zposition Xrotation Yrotation Zrotation
			JOINT spine.002
			{
				OFFSET -0.001292 0.032221 0.118110
				CHANNELS 6 Xposition Yposition Zposition Xrotation Yrotation Zrotation
				JOINT spine.002_end
				{
					OFFSET -0.001419 0.000034 0.121209
					CHANNELS 3 Xrotation Yrotation Zrotation
					End Site
					{
						OFFSET -0.001419 0.000034 0.121209
					}
				}
			}
		}
		JOINT pelvis.L
		{
			OFFSET -0.000000 -0.000000 -0.000000
			CHANNELS 6 Xposition Yposition Zposition Xrotation Yrotation Zrotation
			JOINT pelvis.L_end
			{
				OFFSET -0.072247 0.002503 -0.038786
				CHANNELS 3 Xrotation Yrotation Zrotation
				End Site
				{
					OFFSET -0.072247 0.002503 -0.038786
				}
			}
		}
		JOINT pelvis.R
		{
			OFFSET -0.000324 -0.000000 -0.000000
			CHANNELS 6 Xposition Yposition Zposition Xrotation Yrotation Zrotation
			JOINT pelvis.R_end
			{
				OFFSET 0.072247 0.002503 -0.038786
				CHANNELS 3 Xrotation Yrotation Zrotation
				End Site
				{
					OFFSET 0.072247 0.002503 -0.038786
				}
			}
		}
		JOINT thigh.L
		{
			OFFSET -0.127459 0.002541 -0.038809
			CHANNELS 6 Xposition Yposition Zposition Xrotation Yrotation Zrotation
			JOINT shin.L
			{
				OFFSET 0.014330 -0.016530 -0.429637
				CHANNELS 6 Xposition Yposition Zposition Xrotation Yrotation Zrotation
				JOINT foot.L
				{
					OFFSET 0.003313 0.024476 -0.456592
					CHANNELS 6 Xposition Yposition Zposition Xrotation Yrotation Zrotation
					JOINT toe.L
					{
						OFFSET -0.002644 0.085599 -0.066570
						CHANNELS 6 Xposition Yposition Zposition Xrotation Yrotation Zrotation
						JOINT toe.L_end
						{
							OFFSET 0.000002 0.066666 -0.008452
							CHANNELS 3 Xrotation Yrotation Zrotation
							End Site
							{
								OFFSET 0.000002 0.066666 -0.008452
							}
						}
					}
					JOINT heel.02.L
					{
						OFFSET 0.049654 -0.016617 -0.087640
						CHANNELS 6 Xposition Yposition Zposition Xrotation Yrotation Zrotation
						JOINT heel.02.L_end
						{
							OFFSET -0.079799 -0.000000 -0.005673
							CHANNELS 3 Xrotation Yrotation Zrotation
							End Site
							{
								OFFSET -0.079799 -0.000000 -0.005673
							}
						}
					}
				}
			}
		}
		JOINT thigh.R
		{
			OFFSET 0.127135 0.002541 -0.038809
			CHANNELS 6 Xposition Yposition Zposition Xrotation Yrotation Zrotation
			JOINT shin.R
			{
				OFFSET -0.014330 -0.016530 -0.429637
				CHANNELS 6 Xposition Yposition Zposition Xrotation Yrotation Zrotation
				JOINT foot.R
				{
					OFFSET -0.003313 0.024476 -0.456592
					CHANNELS 6 Xposition Yposition Zposition Xrotation Yrotation Zrotation
					JOINT toe.R
					{
						OFFSET 0.002644 0.085599 -0.066570
						CHANNELS 6 Xposition Yposition Zposition Xrotation Yrotation Zrotation
						JOINT toe.R_end
						{
							OFFSET -0.000001 0.066666 -0.008452
							CHANNELS 3 Xrotation Yrotation Zrotation
							End Site
							{
								OFFSET -0.000001 0.066666 -0.008452
							}
						}
					}
					JOINT heel.02.R
					{
						OFFSET -0.049654 -0.016617 -0.087641
						CHANNELS 6 Xposition Yposition Zposition Xrotation Yrotation Zrotation
						JOINT heel.02.R_end
						{
							OFFSET 0.079897 -0.000000 -0.004051
							CHANNELS 3 Xrotation Yrotation Zrotation
							End Site
							{
								OFFSET 0.079897 -0.000000 -0.004051
							}
						}
					}
				}
			}
		}
	}
	JOINT spine.003
	{
		OFFSET -0.002228 -0.016557 1.310435
		CHANNELS 6 Xposition Yposition Zposition Xrotation Yrotation Zrotation
		JOINT spine.004
		{
			OFFSET -0.003009 0.000086 0.121993
			CHANNELS 6 Xposition Yposition Zposition Xrotation Yrotation Zrotation
			JOINT spine.005
			{
				OFFSET -0.002254 0.000160 0.129929
				CHANNELS 3 Xrotation Yrotation Zrotation
				JOINT spine.006
				{
					OFFSET -0.000135 -0.000162 0.071697
					CHANNELS 3 Xrotation Yrotation Zrotation
					JOINT spine.006_end
					{
						OFFSET -0.000571 -0.002162 0.198302
						CHANNELS 3 Xrotation Yrotation Zrotation
						End Site
						{
							OFFSET -0.000571 -0.002162 0.198302
						}
					}
				}
			}
		}
		JOINT shoulder.L
		{
			OFFSET -0.003009 0.000086 0.121993
			CHANNELS 6 Xposition Yposition Zposition Xrotation Yrotation Zrotation
			JOINT upper_arm.L
			{
				OFFSET -0.150343 0.010516 0.017190
				CHANNELS 6 Xposition Yposition Zposition Xrotation Yrotation Zrotation
				JOINT forearm.L
				{
					OFFSET -0.168473 -0.042919 -0.099665
					CHANNELS 6 Xposition Yposition Zposition Xrotation Yrotation Zrotation
					JOINT hand.L
					{
						OFFSET -0.195861 -0.007323 -0.130223
						CHANNELS 3 Xrotation Yrotation Zrotation
						JOINT hand.L_end
						{
							OFFSET -0.061460 0.002182 -0.033437
							CHANNELS 3 Xrotation Yrotation Zrotation
							End Site
							{
								OFFSET -0.061460 0.002182 -0.033437
							}
						}
					}
				}
			}
		}
		JOINT shoulder.R
		{
			OFFSET -0.003009 0.000086 0.121993
			CHANNELS 6 Xposition Yposition Zposition Xrotation Yrotation Zrotation
			JOINT upper_arm.R
			{
				OFFSET 0.160819 0.010516 0.017190
				CHANNELS 6 Xposition Yposition Zposition Xrotation Yrotation Zrotation
				JOINT forearm.R
				{
					OFFSET 0.168473 -0.042919 -0.099665
					CHANNELS 3 Xrotation Yrotation Zrotation
					JOINT hand.R
					{
						OFFSET 0.201860 0.019004 -0.120869
						CHANNELS 3 Xrotation Yrotation Zrotation
						JOINT hand.R_end
						{
							OFFSET 0.060711 0.010731 -0.033206
							CHANNELS 3 Xrotation Yrotation Zrotation
							End Site
							{
								OFFSET 0.060711 0.010731 -0.033206
							}
						}
					}
				}
			}
		}
		JOINT breast.L
		{
			OFFSET -0.074125 -0.086365 0.053266
			CHANNELS 6 Xposition Yposition Zposition Xrotation Yrotation Zrotation
			JOINT breast.L_end
			{
				OFFSET -0.000000 0.139200 0.000000
				CHANNELS 3 Xrotation Yrotation Zrotation
				End Site
				{
					OFFSET -0.000000 0.139200 0.000000
				}
			}
		}
		JOINT breast.R
		{
			OFFSET 0.078582 -0.086365 0.053266
			CHANNELS 6 Xposition Yposition Zposition Xrotation Yrotation Zrotation
			JOINT breast.R_end
			{
				OFFSET 0.000000 0.139200 0.000000
				CHANNELS 3 Xrotation Yrotation Zrotation
				End Site
				{
					OFFSET 0.000000 0.139200 0.000000
				}
			}
		}
	}
}
MOTION
Frames: 4
Frame Time: 0.016667
0.000162 -0.056933 1.012679 0.000021 0.000025 -0.000018 0.000320 0.008121 0.058438 0.000017 -0.000016 0.000047 -0.001292 0.032221 0.118110 -0.000014 0.000010 0.000011 -0.000000 0.000000 -0.000000 -0.000000 0.000000 0.000000 -0.000005 -0.000031 0.000027 0.000000 -0.000002 0.000000 -0.000324 0.000000 0.000000 0.000008 -0.000047 0.000004 0.000000 -0.000002 -0.000000 -0.127459 0.002541 -0.038809 6.835104 -7.063622 5.479378 0.014331 -0.016530 -0.429637 -13.875283 -0.147425 -1.121406 0.003315 0.024476 -0.456592 5.188810 2.536841 -0.638417 -0.002642 0.085598 -0.066572 3.721034 0.000013 0.000175 -0.000001 0.000000 -0.000000 0.049654 -0.016617 -0.087642 -0.000081 4.066226 0.000194 0.000000 0.000000 -0.000000 0.127135 0.002541 -0.038809 24.336072 -7.162187 -3.529118 -0.014330 -0.016530 -0.429637 -67.770052 -5.841385 9.487261 -0.003314 0.024476 -0.456592 2.687075 5.209318 -13.686773 0.002643 0.085598 -0.066572 0.022093 0.000026 -0.000184 -0.000003 -0.000000 0.000001 -0.049654 -0.016617 -0.087642 -0.000102 -2.902793 -0.000220 -0.000004 -0.000001 -0.000001 -0.002228 -0.016557 1.310435 -3.993963 0.615304 -0.148784 -0.003009 0.000086 0.121993 1.018956 -1.634348 0.329568 1.018948 -1.634353 0.329606 1.018966 -1.634338 0.329624 0.000000 0.000000 0.000001 -0.003009 0.000086 0.121993 -4.470606 -5.104991 -14.363130 -0.150343 0.010516 0.017189 3.597715 -46.150191 0.945736 -0.168473 -0.042919 -0.099665 8.869834 1.837762 -14.535710 -33.525283 -3.590070 -22.243947 0.000001 -0.000000 -0.000001 -0.003009 0.000086 0.121993 3.230205 -9.919036 10.215631 0.160819 0.010516 0.017190 -4.971464 50.618607 18.082969 14.250596 2.799123 24.397053 -3.640956 -17.402412 35.850054 0.000000 -0.000001 -0.000000 -0.074125 -0.086365 0.053266 0.000024 0.000000 0.000002 -0.000000 0.000000 0.000000 0.078582 -0.086365 0.053266 0.000032 -0.000003 -0.000044 -0.000001 -0.000000 0.000000 
0.000162 -0.056933 1.012679 0.000021 0.000025 -0.000018 0.000320 0.008121 0.058438 0.000017 -0.000016 0.000047 -0.001292 0.032221 0.118110 -0.000014 0.000010 0.000011 -0.000000 0.000000 -0.000000 -0.000000 0.000000 0.000000 -0.000005 -0.000031 0.000027 0.000000 -0.000002 0.000000 -0.000324 0.000000 0.000000 0.000008 -0.000047 0.000004 0.000000 -0.000002 -0.000000 -0.127459 0.002541 -0.038809 5.182362 -6.538161 5.988132 0.014331 -0.016530 -0.429637 -13.627816 -0.271083 -2.401328 0.003315 0.024476 -0.456592 6.391526 2.756531 -0.682244 -0.002642 0.085598 -0.066572 4.045895 -0.000001 0.000181 0.000000 -0.000001 -0.000000 0.049654 -0.016617 -0.087642 -0.000083 4.066225 0.000194 -0.000000 0.000000 -0.000000 0.127135 0.002541 -0.038809 27.271653 -6.156153 -2.990641 -0.014330 -0.016530 -0.429637 -63.973034 -5.557667 10.117793 -0.003314 0.024476 -0.456592 4.562877 5.478017 -14.784429 0.002643 0.085598 -0.066572 -0.225332 0.000017 -0.000189 -0.000006 -0.000000 -0.000001 -0.049654 -0.016617 -0.087642 -0.000094 -2.902793 -0.000219 0.000000 -0.000000 0.000001 -0.002228 -0.016557 1.310436 -3.774471 0.746455 -0.305985 -0.003009 0.000086 0.121992 0.932729 -1.534071 0.105287 0.932716 -1.534067 0.105325 0.932762 -1.534060 0.105339 -0.000000 0.000001 0.000000 -0.003009 0.000086 0.121992 -4.419201 -4.082340 -16.125740 -0.150343 0.010516 0.017190 2.647279 -45.666395 -2.245225 -0.168473 -0.042919 -0.099665 9.270407 1.734193 -15.170325 -30.526260 -0.904652 -21.187262 0.000001 -0.000002 0.000000 -0.003009 0.000086 0.121992 3.069380 -9.268679 8.842050 0.160818 0.010516 0.017190 -4.290860 51.013505 16.027111 13.474584 2.458762 23.018707 -5.202011 -17.560213 36.970311 0.000005 0.000001 0.000001 -0.074125 -0.086364 0.053266 0.000024 0.000000 0.000001 0.000000 0.000000 0.000000 0.078582 -0.086365 0.053266 0.000032 -0.000003 -0.000044 -0.000000 -0.000000 -0.000000 
0.000162 -0.056933 1.012679 0.000021 0.000025 -0.000018 0.000320 0.008121 0.058438 0.000017 -0.000016 0.000047 -0.001292 0.032221 0.118110 -0.000014 0.000010 0.000011 -0.000000 0.000000 -0.000000 -0.000000 0.000000 0.000000 -0.000005 -0.000031 0.000027 0.000000 -0.000002 0.000000 -0.000324 0.000000 0.000000 0.000008 -0.000047 0.000004 0.000000 -0.000002 -0.000000 -0.127459 0.002541 -0.038809 3.672340 -5.907580 6.525558 0.014330 -0.016530 -0.429637 -13.755718 -0.384517 -3.851934 0.003315 0.024476 -0.456592 7.877563 2.936038 -0.734711 -0.002642 0.085598 -0.066572 4.453061 0.000001 0.000181 -0.000001 -0.000000 0.000000 0.049654 -0.016617 -0.087642 -0.000084 4.066226 0.000194 -0.000000 -0.000000 0.000000 0.127135 0.002541 -0.038809 29.935671 -5.297390 -2.952176 -0.014330 -0.016530 -0.429637 -59.481973 -5.493474 10.243103 -0.003314 0.024476 -0.456592 4.756116 5.869192 -15.763501 0.002643 0.085598 -0.066572 -0.698485 0.000025 -0.000185 0.000001 -0.000000 0.000001 -0.049654 -0.016617 -0.087642 -0.000099 -2.902795 -0.000218 -0.000004 0.000000 -0.000001 -0.002228 -0.016557 1.310435 -3.415504 0.921668 -0.463727 -0.003009 0.000086 0.121993 0.817594 -1.414638 -0.134373 0.817586 -1.414638 -0.134334 0.817604 -1.414625 -0.134321 -0.000000 -0.000000 -0.000001 -0.003009 0.000086 0.121992 -4.393968 -2.797327 -18.319225 -0.150343 0.010516 0.017190 1.994889 -45.184966 -4.675177 -0.168473 -0.042919 -0.099665 9.864464 1.571832 -16.113586 -28.476831 1.098985 -20.974754 -0.000001 -0.000002 0.000000 -0.003009 0.000086 0.121993 2.812337 -8.520589 7.488885 0.160819 0.010516 0.017190 -3.305280 51.250304 13.182609 12.799435 2.180442 21.827283 -7.234234 -17.754894 37.636098 -0.000005 0.000001 -0.000000 -0.074125 -0.086365 0.053266 0.000024 0.000000 0.000002 0.000000 0.000000 -0.000000 0.078582 -0.086365 0.053266 0.000034 -0.000004 -0.000044 0.000000 -0.000001 0.000000 
0.000162 -0.056933 1.012679 0.000021 0.000025 -0.000018 0.000320 0.008121 0.058438 0.000017 -0.000016 0.000047 -0.001292 0.032221 0.118110 -0.000014 0.000010 0.000011 -0.000000 0.000000 -0.000000 -0.000000 0.000000 0.000000 -0.000005 -0.000031 0.000027 0.000000 -0.000002 0.000000 -0.000324 0.000000 0.000000 0.000008 -0.000047 0.000004 0.000000 -0.000002 -0.000000 -0.127459 0.002541 -0.038809 2.228075 -4.982854 7.140188 0.014331 -0.016530 -0.429637 -14.195767 -0.489311 -5.478014 0.003315 0.024476 -0.456592 9.460065 3.163586 -0.802654 -0.002642 0.085598 -0.066572 4.926838 -0.000009 0.000186 0.000001 0.000000 0.000000 0.049654 -0.016617 -0.087642 -0.000080 4.066225 0.000195 -0.000000 -0.000000 0.000000 0.127135 0.002541 -0.038809 32.361303 -4.356018 -3.330853 -0.014330 -0.016530 -0.429637 -54.288113 -5.552629 9.972573 -0.003314 0.024476 -0.456592 4.062770 6.423805 -17.420515 0.002643 0.085598 -0.066572 0.118372 0.000025 -0.000202 0.000004 0.000000 -0.000000 -0.049654 -0.016617 -0.087642 -0.000096 -2.902793 -0.000217 0.000000 -0.000000 -0.000001 -0.002228 -0.016557 1.310435 -3.141716 1.084829 -0.624002 -0.003009 0.000086 0.121992 0.725455 -1.252349 -0.390272 0.725447 -1.252350 -0.390236 0.725465 -1.252333 -0.390221 -0.000000 -0.000000 0.000001 -0.003009 0.000086 0.121992 -4.266518 -1.169302 -20.691254 -0.150343 0.010516 0.017189 1.996169 -44.696929 -6.015292 -0.168473 -0.042919 -0.099665 10.696811 1.326543 -17.439701 -26.366221 2.115760 -21.223840 0.000002 -0.000001 -0.000000 -0.003009 0.000086 0.121992 2.556169 -7.512008 5.751142 0.160819 0.010516 0.017190 -2.540596 51.215040 10.751750 11.961290 1.857475 20.357444 -9.374719 -17.904859 37.884392 0.000003 0.000000 0.000004 -0.074125 -0.086365 0.053266 0.000023 0.000000 0.000002 0.000000 0.000000 0.000000 0.078582 -0.086365 0.053266 0.000033 -0.000003 -0.000044 0.000000 0.000000 0.000000 
